<?xml version="1.0" encoding="utf-8"?>
<!-- Generated by IcoMoon.io -->
<!DOCTYPE svg PUBLIC "-//W3C//DTD SVG 1.1//EN" "http://www.w3.org/Graphics/SVG/1.1/DTD/svg11.dtd">
<svg version="1.1" xmlns="http://www.w3.org/2000/svg" xmlns:xlink="http://www.w3.org/1999/xlink" width="640" height="640" viewBox="0 0 640 640"><g id="icomoon-ignore">
</g>
<path fill="rgb(68,68,68)" d="M342.857 91.429q0-9.286-6.786-16.071t-16.071-6.786-16.071 6.786-6.786 16.071 6.786 16.071 16.071 6.786 16.071-6.786 6.786-16.071zM640 422.857v125.714q0 7.857-7.143 10.714-2.857 0.714-4.286 0.714-4.643 0-8.214-3.214l-33.214-33.214q-42.5 51.071-113.75 80.893t-153.393 29.821-153.393-29.821-113.75-80.893l-33.214 33.214q-3.214 3.214-8.214 3.214-1.429 0-4.286-0.714-7.143-2.857-7.143-10.714v-125.714q0-5 3.214-8.214t8.214-3.214h125.714q7.857 0 10.714 7.143 2.857 6.786-2.5 12.5l-35.714 35.714q23.929 32.5 67.679 54.821t96.964 29.464v-231.071h-68.571q-9.286 0-16.071-6.786t-6.786-16.071v-45.714q0-9.286 6.786-16.071t16.071-6.786h68.571v-58.214q-20.714-12.143-33.214-33.036t-12.5-45.893q0-37.857 26.786-64.643t64.643-26.786 64.643 26.786 26.786 64.643q0 25-12.5 45.893t-33.214 33.036v58.214h68.571q9.286 0 16.071 6.786t6.786 16.071v45.714q0 9.286-6.786 16.071t-16.071 6.786h-68.571v231.071q53.214-7.143 96.964-29.464t67.679-54.821l-35.714-35.714q-5.357-5.714-2.5-12.5 2.857-7.143 10.714-7.143h125.714q5 0 8.214 3.214t3.214 8.214z"></path>
</svg>
