<?xml version="1.0" encoding="utf-8"?>
<!-- Generated by IcoMoon.io -->
<!DOCTYPE svg PUBLIC "-//W3C//DTD SVG 1.1//EN" "http://www.w3.org/Graphics/SVG/1.1/DTD/svg11.dtd">
<svg version="1.1" xmlns="http://www.w3.org/2000/svg" xmlns:xlink="http://www.w3.org/1999/xlink" width="640" height="640" viewBox="0 0 640 640"><g id="icomoon-ignore">
</g>
<path fill="rgb(255,255,255)" d="M418.547 320.026l167.478 167.478c10.881 10.881 10.881 28.546 0 39.424l-59.094 59.094c-10.881 10.881-28.517 10.881-39.424 0l-167.506-167.478-167.506 167.478c-10.881 10.881-28.518 10.881-39.397 0l-59.123-59.094c-10.881-10.881-10.881-28.517 0-39.424l167.506-167.478-167.506-167.506c-10.881-10.881-10.881-28.546 0-39.424l59.151-59.094c10.881-10.881 28.517-10.881 39.397 0l167.478 167.506 167.506-167.506c10.881-10.881 28.517-10.881 39.424 0l59.094 59.123c10.881 10.881 10.881 28.517 0 39.424l-167.478 167.478z"></path>
</svg>
