<?xml version="1.0" encoding="utf-8"?>
<!-- Generated by IcoMoon.io -->
<!DOCTYPE svg PUBLIC "-//W3C//DTD SVG 1.1//EN" "http://www.w3.org/Graphics/SVG/1.1/DTD/svg11.dtd">
<svg version="1.1" xmlns="http://www.w3.org/2000/svg" xmlns:xlink="http://www.w3.org/1999/xlink" width="1024" height="1024" viewBox="0 0 1024 1024"><g id="icomoon-ignore">
</g>
<path d="M966.223 462.010c-15.256 0-51.985 16.908-78.17 30.031h-59.612c-3.604-76.369-34.266-145.501-82.735-198.206l39.401-39.431c27.989-9.16 69.132-23.995 80.455-35.317 17.598-17.598 17.598-46.129 0-63.726-17.598-17.568-46.098-17.568-63.697 0-10.781 10.781-24.807 48.771-34.025 76.52l-42.134 42.104c-52.945-48.2-122.227-78.441-198.687-81.625v-55.768c13.274-26.276 31.892-65.889 31.892-81.895 0-24.866-20.181-45.047-45.047-45.047s-45.047 20.181-45.047 45.047c0 15.256 16.908 51.985 30.031 78.172v59.612c-76.369 3.604-145.531 34.236-198.236 82.735l-39.401-39.431c-9.16-27.989-24.025-69.162-35.347-80.484-17.568-17.568-46.098-17.568-63.695 0-17.598 17.598-17.598 46.127 0 63.726 10.781 10.811 48.741 24.807 76.49 34.025l42.134 42.134c-47.78 52.525-77.901 121.116-81.475 196.825h-59.612c-26.157-13.124-62.885-30.031-78.17-30.031-24.896 0-45.047 20.181-45.047 45.047s20.151 45.047 45.047 45.047c16.007 0 55.618-18.619 81.895-31.892h55.798c3.153 76.46 33.425 145.742 81.595 198.687l-42.104 42.134c-27.779 9.22-65.708 23.214-76.52 34.025-17.598 17.598-17.598 46.129 0 63.697 17.598 17.598 46.127 17.598 63.695 0 11.322-11.292 26.157-52.435 35.347-80.424l39.431-39.431c52.705 48.471 121.837 79.132 198.206 82.735v59.612c-13.124 26.157-30.031 62.915-30.031 78.17 0 24.866 20.181 45.047 45.047 45.047s45.047-20.181 45.047-45.047c0-16.007-18.619-55.618-31.894-81.895v-55.798c76.46-3.123 145.742-33.395 198.687-81.565l42.134 42.104c9.22 27.749 23.214 65.708 34.025 76.49 17.598 17.598 46.098 17.598 63.697 0 17.598-17.568 17.598-46.098 0-63.697-11.322-11.322-52.465-26.157-80.453-35.347l-39.401-39.401c48.891-53.155 79.643-122.978 82.826-200.098h55.798c26.278 13.304 65.859 31.894 81.895 31.894 24.866 0 45.047-20.181 45.047-45.047s-20.211-45.017-45.077-45.017zM323.254 337.678l106.671 106.671c-10.271 13.723-17.088 29.941-19.67 47.66h-150.877c3.454-59.132 26.908-112.767 63.876-154.331zM259.257 520.18h150.817c2.342 18.469 9.25 35.375 19.881 49.553l-106.701 106.671c-37.329-41.984-60.903-96.34-63.997-156.223zM498.846 761.541c-59.822-3.484-113.969-27.449-155.741-65.167l106.611-106.611c14.025 10.871 30.722 18.199 49.131 20.842v150.937zM498.846 403.448c-18.409 2.644-35.107 10.001-49.131 20.872l-106.611-106.611c41.773-37.689 95.921-61.684 155.743-65.167v150.907zM768.377 492.039h-150.907c-2.644-18.379-9.97-35.107-20.842-49.131l106.611-106.611c37.689 41.743 61.654 95.921 65.138 155.741zM683.238 316.417l-106.671 106.701c-14.205-10.631-31.082-17.538-49.553-19.881v-150.817c59.882 3.093 114.239 26.668 156.223 63.997zM527.016 761.631v-150.787c18.469-2.342 35.378-9.25 49.553-19.851l106.671 106.671c-41.984 37.329-96.34 60.903-156.223 63.966zM703.209 677.783l-106.611-106.611c11.262-14.475 18.649-31.892 21.052-50.993h150.787c-3.033 60.573-27.118 115.439-65.228 157.604z"></path>
</svg>
